<?xml version="1.0" encoding="UTF-8"?><svg id="Layer_1" xmlns="http://www.w3.org/2000/svg" viewBox="0 0 256 256"><defs><style>.cls-1{fill:#fff;}.cls-2{fill:#c69c6d;}</style></defs><rect class="cls-2" width="256" height="256"/><g><g><path class="cls-1" d="M44.14,223.4h-12.68l-2.42,5.85h-6.48l12.17-27.31h6.24l12.21,27.31h-6.63l-2.42-5.85Zm-1.99-4.8l-4.33-10.46-4.33,10.46h8.66Z"/><path class="cls-1" d="M56.03,201.94h12.41c8.94,0,15.06,5.38,15.06,13.66s-6.12,13.66-15.06,13.66h-12.41v-27.31Zm12.1,22.12c5.42,0,8.97-3.24,8.97-8.47s-3.55-8.47-8.97-8.47h-5.77v16.93h5.77Z"/><path class="cls-1" d="M97.16,226.56l2.15-4.76c2.3,1.68,5.74,2.85,9.01,2.85,3.75,0,5.27-1.25,5.27-2.93,0-5.11-15.88-1.6-15.88-11.74,0-4.64,3.75-8.51,11.51-8.51,3.43,0,6.95,.82,9.48,2.42l-1.95,4.8c-2.54-1.44-5.15-2.15-7.57-2.15-3.75,0-5.19,1.41-5.19,3.12,0,5.03,15.88,1.56,15.88,11.59,0,4.56-3.79,8.47-11.59,8.47-4.33,0-8.7-1.29-11.12-3.16Z"/><path class="cls-1" d="M122.48,215.6c0-8.23,6.32-14.12,14.83-14.12,4.72,0,8.66,1.72,11.24,4.84l-4.06,3.75c-1.83-2.11-4.14-3.2-6.87-3.2-5.11,0-8.74,3.59-8.74,8.74s3.63,8.74,8.74,8.74c2.73,0,5.03-1.09,6.87-3.24l4.06,3.75c-2.58,3.16-6.52,4.88-11.28,4.88-8.47,0-14.79-5.89-14.79-14.12Z"/><path class="cls-1" d="M173.94,224.18v5.07h-21.15v-27.31h20.64v5.07h-14.36v5.93h12.68v4.92h-12.68v6.32h14.87Z"/><path class="cls-1" d="M204.02,201.94v27.31h-5.19l-13.62-16.58v16.58h-6.24v-27.31h5.23l13.58,16.58v-16.58h6.24Z"/><path class="cls-1" d="M231.65,224.18v5.07h-21.15v-27.31h20.64v5.07h-14.36v5.93h12.68v4.92h-12.68v6.32h14.87Z"/></g><rect class="cls-1" x="22.63" y="240.49" width="208.95" height="2.51"/><g><rect class="cls-1" x="43.26" y="73.25" width="170.01" height="11.94"/><path class="cls-1" d="M43.26,84.18H213.26v84.6c0,4.3-3.49,7.8-7.8,7.8H51.06c-4.3,0-7.8-3.49-7.8-7.8V84.18h0Z"/><g><polygon class="cls-2" points="70.96 85.19 59.02 73.25 43.26 73.25 43.14 73.37 54.97 85.19 70.96 85.19"/><polygon class="cls-2" points="106.53 85.19 94.59 73.25 78.84 73.25 78.72 73.37 90.55 85.19 106.53 85.19"/><polygon class="cls-2" points="142.11 85.19 130.17 73.25 114.41 73.25 114.3 73.37 126.12 85.19 142.11 85.19"/><polygon class="cls-2" points="177.69 85.19 165.75 73.25 149.99 73.25 149.88 73.37 161.7 85.19 177.69 85.19"/><polygon class="cls-2" points="213.26 85.19 201.32 73.25 185.57 73.25 185.45 73.37 197.28 85.19 213.26 85.19"/></g><g><path class="cls-1" d="M42.77,73.25L206.99,29.25l-1.41-8.47c-.9-5.42-6.28-8.88-11.58-7.46L47.83,52.48c-4.62,1.24-7.55,5.79-6.77,10.51l1.71,10.26Z"/><g><polygon class="cls-2" points="180.23 36.42 188.68 21.8 203.9 17.72 204.04 17.8 195.67 32.28 180.23 36.42"/><polygon class="cls-2" points="145.87 45.63 154.31 31 169.53 26.93 169.67 27.01 161.31 41.49 145.87 45.63"/><polygon class="cls-2" points="111.5 54.84 119.95 40.21 135.17 36.13 135.31 36.21 126.94 50.7 111.5 54.84"/><polygon class="cls-2" points="77.14 64.04 85.58 49.42 100.8 45.34 100.94 45.42 92.58 59.91 77.14 64.04"/><polygon class="cls-2" points="42.77 73.25 51.22 58.63 66.44 54.55 66.58 54.63 58.21 69.11 42.77 73.25"/></g></g><path class="cls-2" d="M115.94,114.31v37.77c0,5.61,6.31,8.91,10.91,5.7l27.16-18.89c3.97-2.76,3.97-8.64,0-11.41l-27.16-18.89c-4.61-3.2-10.91,.09-10.91,5.7Z"/></g></g></svg>