<?xml version="1.0" encoding="UTF-8"?><svg id="Layer_1" xmlns="http://www.w3.org/2000/svg" viewBox="0 0 256 256"><defs><style>.cls-1{fill:#d4145a;}</style></defs><path class="cls-1" d="M149.46,204.91c-42.47,0-76.91-34.43-76.91-76.91S106.99,51.09,149.46,51.09c1.44,0,2.86,.05,4.28,.12l-31.98-31.98L13,128l108.76,108.76,31.98-31.98c-1.42,.08-2.84,.12-4.28,.12Z"/><path class="cls-1" d="M141.36,70.72c31.64,0,57.28,25.65,57.28,57.28s-25.65,57.28-57.28,57.28c-1.07,0-2.13-.03-3.19-.09l23.82,23.82,81.01-81.01L161.99,46.99l-23.82,23.82c1.06-.06,2.12-.09,3.19-.09Z"/><path class="cls-1" d="M140.44,93.6c-19,0-34.4,15.4-34.4,34.4s15.4,34.4,34.4,34.4,34.4-15.4,34.4-34.4-15.4-34.4-34.4-34.4Zm0,51.46c-9.42,0-17.06-7.64-17.06-17.06s7.64-17.06,17.06-17.06,17.06,7.64,17.06,17.06-7.64,17.06-17.06,17.06Z"/></svg>