<?xml version="1.0" encoding="UTF-8"?><svg id="Layer_1" xmlns="http://www.w3.org/2000/svg" xmlns:xlink="http://www.w3.org/1999/xlink" viewBox="0 0 256 256"><defs><style>.cls-1{fill:url(#linear-gradient);}.cls-2{fill:#01c1e5;}.cls-3{fill:#fff;}</style><linearGradient id="linear-gradient" x1="0" y1="128" x2="256" y2="128" gradientUnits="userSpaceOnUse"><stop offset=".28" stop-color="#3f3f3f"/><stop offset="1" stop-color="#000"/></linearGradient></defs><rect class="cls-1" width="256" height="256"/><g><g><path class="cls-3" d="M150.87,158.69c2.56,17.69,15.12,24.88,34.01,24.88s27.34-8.05,27.34-20.11c0-13.23-7.45-19.45-34.85-25.89-40.44-9.57-51.33-24.08-51.33-45.04,0-25.81,19.25-44.1,55.11-44.1,39.77,0,55.73,21.74,57.89,43.65h-30.33c-1.89-10.5-7.94-21.01-28.4-21.01-14.78,0-23.5,6.28-23.5,18.11s7.06,16.28,32.41,22.23c44.48,10.56,53.77,27.3,53.77,48.49,0,27.25-20.52,46.55-60.4,46.55s-58.5-19.68-62.06-46.6l30.33-1.16Z"/><path class="cls-3" d="M85.87,183.6c-31.33,0-41.56-28.64-41.56-55.83,0-28.93,11.47-55.27,40.66-55.27,19.11,0,28.4,9.23,32.97,20.32,0-.1,0-.2,0-.3,0-12.04,4.19-22.43,12.29-30.11-10.41-8.48-25-13.89-44.25-13.89-49.2,0-72.99,38-72.99,80.31s23.23,78.74,71.59,78.74c37.84,0,59.06-20.65,65.44-48.87h-30.42c-3.63,10.51-11.4,24.89-33.73,24.89Z"/></g><path class="cls-2" d="M150.87,158.69h-31.07c1.51,11.45,5.73,23.38,14.2,30.55,8.53-7.41,14.18-18.72,16.86-30.55Z"/></g></svg>