<?xml version="1.0" encoding="utf-8"?>
<!-- Generator: Adobe Illustrator 27.0.1, SVG Export Plug-In . SVG Version: 6.00 Build 0)  -->
<svg version="1.1" id="Layer_1" xmlns="http://www.w3.org/2000/svg" xmlns:xlink="http://www.w3.org/1999/xlink" x="0px" y="0px"
	 viewBox="0 0 56 40" style="enable-background:new 0 0 56 40;" xml:space="preserve">
<style type="text/css">
	.st0{fill:#D4145A;}
</style>
<g>
	<g>
		<path class="st0" d="M30,33.1c-7.3,0-13.3-6-13.3-13.3S22.6,6.5,30,6.5c0.2,0,0.5,0,0.7,0L25.2,1L6.4,19.8l18.8,18.8l5.5-5.5
			C30.4,33.1,30.2,33.1,30,33.1z"/>
	</g>
	<g>
		<path class="st0" d="M28.6,9.9c5.5,0,9.9,4.4,9.9,9.9s-4.4,9.9-9.9,9.9c-0.2,0-0.4,0-0.6,0l4.1,4.1l14-14l-14-14L28,9.9
			C28.2,9.9,28.4,9.9,28.6,9.9z"/>
	</g>
	<path class="st0" d="M28.4,13.8c-3.3,0-5.9,2.7-5.9,5.9s2.7,5.9,5.9,5.9s5.9-2.7,5.9-5.9S31.7,13.8,28.4,13.8z M28.4,22.7
		c-1.6,0-2.9-1.3-2.9-2.9c0-1.6,1.3-2.9,2.9-2.9c1.6,0,2.9,1.3,2.9,2.9C31.3,21.4,30,22.7,28.4,22.7z"/>
</g>
</svg>
