<?xml version="1.0" encoding="utf-8"?>
<!-- Generator: Adobe Illustrator 27.0.1, SVG Export Plug-In . SVG Version: 6.00 Build 0)  -->
<svg version="1.1" id="Layer_1" xmlns="http://www.w3.org/2000/svg" xmlns:xlink="http://www.w3.org/1999/xlink" x="0px" y="0px"
	 viewBox="0 0 226 42" style="enable-background:new 0 0 226 42;" xml:space="preserve">
<style type="text/css">
	.st0{fill:#FFFFFF;}
	.st1{font-family:'Montserrat-Bold';}
	.st2{font-size:18.9876px;}
</style>
<g>
	<g>
		<g>
			<path class="st0" d="M27.5,35c-7.7,0-14-6.3-14-14s6.3-14,14-14c0.3,0,0.5,0,0.8,0l-5.8-5.8L2.6,21l19.8,19.8l5.8-5.8
				C28,35,27.8,35,27.5,35z"/>
		</g>
		<g>
			<path class="st0" d="M26,10.6c5.8,0,10.4,4.7,10.4,10.4S31.8,31.4,26,31.4c-0.2,0-0.4,0-0.6,0l4.3,4.3L44.6,21L29.8,6.2l-4.3,4.3
				C25.7,10.6,25.8,10.6,26,10.6z"/>
		</g>
		<path class="st0" d="M25.9,14.7c-3.5,0-6.3,2.8-6.3,6.3s2.8,6.3,6.3,6.3s6.3-2.8,6.3-6.3S29.3,14.7,25.9,14.7z M25.9,24.1
			c-1.7,0-3.1-1.4-3.1-3.1c0-1.7,1.4-3.1,3.1-3.1c1.7,0,3.1,1.4,3.1,3.1C29,22.7,27.6,24.1,25.9,24.1z"/>
	</g>
	<text transform="matrix(1 0 0 1 52.1448 27.6455)" class="st0 st1 st2">Center ux</text>
</g>
</svg>
