<?xml version="1.0" encoding="utf-8"?>
<!-- Generator: Adobe Illustrator 27.0.1, SVG Export Plug-In . SVG Version: 6.00 Build 0)  -->
<svg version="1.1" id="Layer_1" xmlns="http://www.w3.org/2000/svg" xmlns:xlink="http://www.w3.org/1999/xlink" x="0px" y="0px"
	 viewBox="0 0 27 18" style="enable-background:new 0 0 27 18;" xml:space="preserve">
<style type="text/css">
	.st0{fill:#D4145A;}
</style>
<g>
	<g>
		<g>
			<path class="st0" d="M15.1,14.9c-3.2,0-5.9-2.6-5.9-5.9s2.6-5.9,5.9-5.9c0.1,0,0.2,0,0.3,0L13,0.7L4.7,9l8.3,8.3l2.4-2.4
				C15.4,14.9,15.2,14.9,15.1,14.9z"/>
		</g>
		<g>
			<path class="st0" d="M14.5,4.6c2.4,0,4.4,2,4.4,4.4s-2,4.4-4.4,4.4c-0.1,0-0.2,0-0.2,0l1.8,1.8L22.3,9l-6.2-6.2l-1.8,1.8
				C14.4,4.6,14.4,4.6,14.5,4.6z"/>
		</g>
		<path class="st0" d="M14.4,6.4c-1.5,0-2.6,1.2-2.6,2.6s1.2,2.6,2.6,2.6s2.6-1.2,2.6-2.6S15.9,6.4,14.4,6.4z M14.4,10.3
			c-0.7,0-1.3-0.6-1.3-1.3c0-0.7,0.6-1.3,1.3-1.3c0.7,0,1.3,0.6,1.3,1.3C15.8,9.7,15.2,10.3,14.4,10.3z"/>
	</g>
</g>
</svg>
