<?xml version="1.0" encoding="utf-8"?>
<!-- Generator: Adobe Illustrator 27.0.1, SVG Export Plug-In . SVG Version: 6.00 Build 0)  -->
<svg version="1.1" id="Layer_1" xmlns="http://www.w3.org/2000/svg" xmlns:xlink="http://www.w3.org/1999/xlink" x="0px" y="0px"
	 viewBox="0 0 269 56" style="enable-background:new 0 0 269 56;" xml:space="preserve">
<style type="text/css">
	.st0{fill:#FFFFFF;}
	.st1{font-family:'Montserrat-Bold';}
	.st2{font-size:23.6938px;}
</style>
<g>
	<g>
		<g>
			<path class="st0" d="M39.9,45.5c-9.7,0-17.5-7.8-17.5-17.5s7.8-17.5,17.5-17.5c0.3,0,0.7,0,1,0l-7.3-7.3L8.9,28l24.7,24.7
				l7.3-7.3C40.6,45.5,40.3,45.5,39.9,45.5z"/>
		</g>
		<g>
			<path class="st0" d="M38.1,15c7.2,0,13,5.8,13,13s-5.8,13-13,13c-0.2,0-0.5,0-0.7,0l5.4,5.4L61.2,28L42.8,9.6L37.4,15
				C37.6,15,37.9,15,38.1,15z"/>
		</g>
		<path class="st0" d="M37.9,20.2c-4.3,0-7.8,3.5-7.8,7.8s3.5,7.8,7.8,7.8s7.8-3.5,7.8-7.8S42.2,20.2,37.9,20.2z M37.9,31.9
			c-2.1,0-3.9-1.7-3.9-3.9c0-2.1,1.7-3.9,3.9-3.9c2.1,0,3.9,1.7,3.9,3.9C41.8,30.1,40,31.9,37.9,31.9z"/>
	</g>
	<text transform="matrix(1 0 0 1 70.6721 36.2926)" class="st0 st1 st2">Center ux</text>
</g>
</svg>
