<?xml version="1.0" encoding="utf-8"?>
<!-- Generator: Adobe Illustrator 27.0.1, SVG Export Plug-In . SVG Version: 6.00 Build 0)  -->
<svg version="1.1" id="Layer_1" xmlns="http://www.w3.org/2000/svg" xmlns:xlink="http://www.w3.org/1999/xlink" x="0px" y="0px"
	 viewBox="0 0 269 56" style="enable-background:new 0 0 269 56;" xml:space="preserve">
<style type="text/css">
	.st0{fill:#D4145A;}
	.st1{font-family:'Montserrat-Bold';}
	.st2{font-size:25.5859px;}
</style>
<g>
	<g>
		<g>
			<path class="st0" d="M40.4,46.9C30,46.9,21.5,38.4,21.5,28S30,9.1,40.4,9.1c0.4,0,0.7,0,1.1,0l-7.9-7.9L6.9,28l26.7,26.7l7.9-7.9
				C41.1,46.9,40.7,46.9,40.4,46.9z"/>
		</g>
		<g>
			<path class="st0" d="M38.4,13.9c7.8,0,14.1,6.3,14.1,14.1s-6.3,14.1-14.1,14.1c-0.3,0-0.5,0-0.8,0l5.9,5.9L63.4,28L43.5,8.1
				L37.6,14C37.9,13.9,38.1,13.9,38.4,13.9z"/>
		</g>
		<path class="st0" d="M38.2,19.5c-4.7,0-8.5,3.8-8.5,8.5s3.8,8.5,8.5,8.5s8.5-3.8,8.5-8.5S42.8,19.5,38.2,19.5z M38.2,32.2
			c-2.3,0-4.2-1.9-4.2-4.2c0-2.3,1.9-4.2,4.2-4.2c2.3,0,4.2,1.9,4.2,4.2C42.4,30.3,40.5,32.2,38.2,32.2z"/>
	</g>
	<text transform="matrix(1 0 0 1 73.5742 36.9552)" class="st0 st1 st2">Center ux</text>
</g>
</svg>
