<?xml version="1.0" encoding="utf-8"?>
<!-- Generator: Adobe Illustrator 27.0.1, SVG Export Plug-In . SVG Version: 6.00 Build 0)  -->
<svg version="1.1" id="Layer_1" xmlns="http://www.w3.org/2000/svg" xmlns:xlink="http://www.w3.org/1999/xlink" x="0px" y="0px"
	 viewBox="0 0 164 26" style="enable-background:new 0 0 164 26;" xml:space="preserve">
<style type="text/css">
	.st0{fill:#FFFFFF;}
	.st1{font-family:'Montserrat-Bold';}
	.st2{font-size:10.9002px;}
</style>
<g>
	<g>
		<g>
			<path class="st0" d="M18.4,21c-4.4,0-8-3.6-8-8s3.6-8,8-8c0.2,0,0.3,0,0.4,0l-3.3-3.3L4.1,13l11.4,11.4l3.3-3.3
				C18.7,21,18.6,21,18.4,21z"/>
		</g>
		<g>
			<path class="st0" d="M17.6,7c3.3,0,6,2.7,6,6s-2.7,6-6,6c-0.1,0-0.2,0-0.3,0l2.5,2.5l8.5-8.5l-8.5-8.5L17.2,7
				C17.3,7,17.5,7,17.6,7z"/>
		</g>
		<path class="st0" d="M17.5,9.4c-2,0-3.6,1.6-3.6,3.6s1.6,3.6,3.6,3.6s3.6-1.6,3.6-3.6S19.5,9.4,17.5,9.4z M17.5,14.8
			c-1,0-1.8-0.8-1.8-1.8c0-1,0.8-1.8,1.8-1.8c1,0,1.8,0.8,1.8,1.8C19.3,14,18.5,14.8,17.5,14.8z"/>
	</g>
	<text transform="matrix(1 0 0 1 32.5469 16.815)" class="st0 st1 st2">Center ux</text>
</g>
</svg>
