<?xml version="1.0" encoding="utf-8"?>
<!-- Generator: Adobe Illustrator 27.0.1, SVG Export Plug-In . SVG Version: 6.00 Build 0)  -->
<svg version="1.1" id="Layer_1" xmlns="http://www.w3.org/2000/svg" xmlns:xlink="http://www.w3.org/1999/xlink" x="0px" y="0px"
	 viewBox="0 0 164 26" style="enable-background:new 0 0 164 26;" xml:space="preserve">
<style type="text/css">
	.st0{fill:#FFFFFF;}
	.st1{font-family:'Montserrat-Bold';}
	.st2{font-size:11.8933px;}
</style>
<g>
	<g>
		<g>
			<path class="st0" d="M17.9,21.8c-4.8,0-8.8-3.9-8.8-8.8s3.9-8.8,8.8-8.8c0.2,0,0.3,0,0.5,0l-3.7-3.7L2.3,13l12.4,12.4l3.7-3.7
				C18.2,21.8,18.1,21.8,17.9,21.8z"/>
		</g>
		<g>
			<path class="st0" d="M17,6.5c3.6,0,6.5,2.9,6.5,6.5s-2.9,6.5-6.5,6.5c-0.1,0-0.2,0-0.4,0l2.7,2.7l9.3-9.3l-9.3-9.3l-2.7,2.7
				C16.8,6.5,16.9,6.5,17,6.5z"/>
		</g>
		<path class="st0" d="M16.9,9.1c-2.2,0-3.9,1.8-3.9,3.9s1.8,3.9,3.9,3.9c2.2,0,3.9-1.8,3.9-3.9S19.1,9.1,16.9,9.1z M16.9,14.9
			c-1.1,0-1.9-0.9-1.9-1.9c0-1.1,0.9-1.9,1.9-1.9c1.1,0,1.9,0.9,1.9,1.9C18.8,14.1,18,14.9,16.9,14.9z"/>
	</g>
	<text transform="matrix(1 0 0 1 33.3427 17.1631)" class="st0 st1 st2">Center ux</text>
</g>
</svg>
