<?xml version="1.0" encoding="utf-8"?>
<!-- Generator: Adobe Illustrator 27.0.1, SVG Export Plug-In . SVG Version: 6.00 Build 0)  -->
<svg version="1.1" id="Layer_1" xmlns="http://www.w3.org/2000/svg" xmlns:xlink="http://www.w3.org/1999/xlink" x="0px" y="0px"
	 viewBox="0 0 269 56" style="enable-background:new 0 0 269 56;" xml:space="preserve">
<style type="text/css">
	.st0{fill:#D4145A;}
	.st1{font-family:'Montserrat-Bold';}
	.st2{font-size:24.1414px;}
</style>
<g>
	<g>
		<g>
			<path class="st0" d="M39.8,45.8C30,45.8,22,37.8,22,28s8-17.8,17.8-17.8c0.3,0,0.7,0,1,0l-7.4-7.4L8.2,28l25.2,25.2l7.4-7.4
				C40.5,45.8,40.2,45.8,39.8,45.8z"/>
		</g>
		<g>
			<path class="st0" d="M38,14.7c7.3,0,13.3,5.9,13.3,13.3S45.3,41.3,38,41.3c-0.2,0-0.5,0-0.7,0l5.5,5.5L61.5,28L42.8,9.2l-5.5,5.5
				C37.5,14.7,37.7,14.7,38,14.7z"/>
		</g>
		<path class="st0" d="M37.8,20c-4.4,0-8,3.6-8,8s3.6,8,8,8s8-3.6,8-8S42.2,20,37.8,20z M37.8,32c-2.2,0-4-1.8-4-4c0-2.2,1.8-4,4-4
			c2.2,0,4,1.8,4,4C41.7,30.2,39.9,32,37.8,32z"/>
	</g>
	<text transform="matrix(1 0 0 1 71.1557 36.4492)" class="st0 st1 st2">Center ux</text>
</g>
</svg>
