<?xml version="1.0" standalone="no"?><!DOCTYPE svg PUBLIC "-//W3C//DTD SVG 1.1//EN" "http://www.w3.org/Graphics/SVG/1.1/DTD/svg11.dtd">
<svg x="0.0000mm" y="0.0000mm" width="26.4580mm" height="26.4580mm" viewBox="0.0000 0.0000 26.4580 26.4580" version="1.1" xmlns="http://www.w3.org/2000/svg" shape-rendering="crispEdges">
<title>TBarCode - 11.11.0.16177</title>
<desc>BarCode licensed to MEM:TEC-IT Datenverarbeitung GmbH Internal License</desc>
<g fill="rgb(0%,0%,0%)">
</g>
<g fill="rgb(100%,100%,100%)">
<rect x="0.0000" y="0.0000" width="26.4580" height="26.4580" />
</g>
<g fill="rgb(0%,0%,0%)">
</g>
<g fill="rgb(0%,0%,0%)">
<rect x="0.0000" y="0.0000" width="1.0583" height="1.0583" />
<rect x="1.0583" y="0.0000" width="1.0583" height="1.0583" />
<rect x="2.1166" y="0.0000" width="1.0583" height="1.0583" />
<rect x="3.1750" y="0.0000" width="1.0583" height="1.0583" />
<rect x="4.2333" y="0.0000" width="1.0583" height="1.0583" />
<rect x="5.2916" y="0.0000" width="1.0583" height="1.0583" />
<rect x="6.3499" y="0.0000" width="1.0583" height="1.0583" />
<rect x="11.6415" y="0.0000" width="1.0583" height="1.0583" />
<rect x="12.6998" y="0.0000" width="1.0583" height="1.0583" />
<rect x="13.7582" y="0.0000" width="1.0583" height="1.0583" />
<rect x="19.0498" y="0.0000" width="1.0583" height="1.0583" />
<rect x="20.1081" y="0.0000" width="1.0583" height="1.0583" />
<rect x="21.1664" y="0.0000" width="1.0583" height="1.0583" />
<rect x="22.2247" y="0.0000" width="1.0583" height="1.0583" />
<rect x="23.2830" y="0.0000" width="1.0583" height="1.0583" />
<rect x="24.3414" y="0.0000" width="1.0583" height="1.0583" />
<rect x="25.3997" y="0.0000" width="1.0583" height="1.0583" />
</g>
<g fill="rgb(0%,0%,0%)">
<rect x="0.0000" y="1.0583" width="1.0583" height="1.0583" />
<rect x="6.3499" y="1.0583" width="1.0583" height="1.0583" />
<rect x="9.5249" y="1.0583" width="1.0583" height="1.0583" />
<rect x="10.5832" y="1.0583" width="1.0583" height="1.0583" />
<rect x="14.8165" y="1.0583" width="1.0583" height="1.0583" />
<rect x="19.0498" y="1.0583" width="1.0583" height="1.0583" />
<rect x="25.3997" y="1.0583" width="1.0583" height="1.0583" />
</g>
<g fill="rgb(0%,0%,0%)">
<rect x="0.0000" y="2.1166" width="1.0583" height="1.0583" />
<rect x="2.1166" y="2.1166" width="1.0583" height="1.0583" />
<rect x="3.1750" y="2.1166" width="1.0583" height="1.0583" />
<rect x="4.2333" y="2.1166" width="1.0583" height="1.0583" />
<rect x="6.3499" y="2.1166" width="1.0583" height="1.0583" />
<rect x="12.6998" y="2.1166" width="1.0583" height="1.0583" />
<rect x="14.8165" y="2.1166" width="1.0583" height="1.0583" />
<rect x="19.0498" y="2.1166" width="1.0583" height="1.0583" />
<rect x="21.1664" y="2.1166" width="1.0583" height="1.0583" />
<rect x="22.2247" y="2.1166" width="1.0583" height="1.0583" />
<rect x="23.2830" y="2.1166" width="1.0583" height="1.0583" />
<rect x="25.3997" y="2.1166" width="1.0583" height="1.0583" />
</g>
<g fill="rgb(0%,0%,0%)">
<rect x="0.0000" y="3.1750" width="1.0583" height="1.0583" />
<rect x="2.1166" y="3.1750" width="1.0583" height="1.0583" />
<rect x="3.1750" y="3.1750" width="1.0583" height="1.0583" />
<rect x="4.2333" y="3.1750" width="1.0583" height="1.0583" />
<rect x="6.3499" y="3.1750" width="1.0583" height="1.0583" />
<rect x="8.4666" y="3.1750" width="1.0583" height="1.0583" />
<rect x="12.6998" y="3.1750" width="1.0583" height="1.0583" />
<rect x="13.7582" y="3.1750" width="1.0583" height="1.0583" />
<rect x="19.0498" y="3.1750" width="1.0583" height="1.0583" />
<rect x="21.1664" y="3.1750" width="1.0583" height="1.0583" />
<rect x="22.2247" y="3.1750" width="1.0583" height="1.0583" />
<rect x="23.2830" y="3.1750" width="1.0583" height="1.0583" />
<rect x="25.3997" y="3.1750" width="1.0583" height="1.0583" />
</g>
<g fill="rgb(0%,0%,0%)">
<rect x="0.0000" y="4.2333" width="1.0583" height="1.0583" />
<rect x="2.1166" y="4.2333" width="1.0583" height="1.0583" />
<rect x="3.1750" y="4.2333" width="1.0583" height="1.0583" />
<rect x="4.2333" y="4.2333" width="1.0583" height="1.0583" />
<rect x="6.3499" y="4.2333" width="1.0583" height="1.0583" />
<rect x="8.4666" y="4.2333" width="1.0583" height="1.0583" />
<rect x="9.5249" y="4.2333" width="1.0583" height="1.0583" />
<rect x="13.7582" y="4.2333" width="1.0583" height="1.0583" />
<rect x="14.8165" y="4.2333" width="1.0583" height="1.0583" />
<rect x="16.9331" y="4.2333" width="1.0583" height="1.0583" />
<rect x="19.0498" y="4.2333" width="1.0583" height="1.0583" />
<rect x="21.1664" y="4.2333" width="1.0583" height="1.0583" />
<rect x="22.2247" y="4.2333" width="1.0583" height="1.0583" />
<rect x="23.2830" y="4.2333" width="1.0583" height="1.0583" />
<rect x="25.3997" y="4.2333" width="1.0583" height="1.0583" />
</g>
<g fill="rgb(0%,0%,0%)">
<rect x="0.0000" y="5.2916" width="1.0583" height="1.0583" />
<rect x="6.3499" y="5.2916" width="1.0583" height="1.0583" />
<rect x="11.6415" y="5.2916" width="1.0583" height="1.0583" />
<rect x="12.6998" y="5.2916" width="1.0583" height="1.0583" />
<rect x="16.9331" y="5.2916" width="1.0583" height="1.0583" />
<rect x="19.0498" y="5.2916" width="1.0583" height="1.0583" />
<rect x="25.3997" y="5.2916" width="1.0583" height="1.0583" />
</g>
<g fill="rgb(0%,0%,0%)">
<rect x="0.0000" y="6.3499" width="1.0583" height="1.0583" />
<rect x="1.0583" y="6.3499" width="1.0583" height="1.0583" />
<rect x="2.1166" y="6.3499" width="1.0583" height="1.0583" />
<rect x="3.1750" y="6.3499" width="1.0583" height="1.0583" />
<rect x="4.2333" y="6.3499" width="1.0583" height="1.0583" />
<rect x="5.2916" y="6.3499" width="1.0583" height="1.0583" />
<rect x="6.3499" y="6.3499" width="1.0583" height="1.0583" />
<rect x="8.4666" y="6.3499" width="1.0583" height="1.0583" />
<rect x="10.5832" y="6.3499" width="1.0583" height="1.0583" />
<rect x="12.6998" y="6.3499" width="1.0583" height="1.0583" />
<rect x="14.8165" y="6.3499" width="1.0583" height="1.0583" />
<rect x="16.9331" y="6.3499" width="1.0583" height="1.0583" />
<rect x="19.0498" y="6.3499" width="1.0583" height="1.0583" />
<rect x="20.1081" y="6.3499" width="1.0583" height="1.0583" />
<rect x="21.1664" y="6.3499" width="1.0583" height="1.0583" />
<rect x="22.2247" y="6.3499" width="1.0583" height="1.0583" />
<rect x="23.2830" y="6.3499" width="1.0583" height="1.0583" />
<rect x="24.3414" y="6.3499" width="1.0583" height="1.0583" />
<rect x="25.3997" y="6.3499" width="1.0583" height="1.0583" />
</g>
<g fill="rgb(0%,0%,0%)">
<rect x="10.5832" y="7.4082" width="1.0583" height="1.0583" />
<rect x="11.6415" y="7.4082" width="1.0583" height="1.0583" />
<rect x="16.9331" y="7.4082" width="1.0583" height="1.0583" />
</g>
<g fill="rgb(0%,0%,0%)">
<rect x="0.0000" y="8.4666" width="1.0583" height="1.0583" />
<rect x="1.0583" y="8.4666" width="1.0583" height="1.0583" />
<rect x="5.2916" y="8.4666" width="1.0583" height="1.0583" />
<rect x="6.3499" y="8.4666" width="1.0583" height="1.0583" />
<rect x="7.4082" y="8.4666" width="1.0583" height="1.0583" />
<rect x="9.5249" y="8.4666" width="1.0583" height="1.0583" />
<rect x="11.6415" y="8.4666" width="1.0583" height="1.0583" />
<rect x="13.7582" y="8.4666" width="1.0583" height="1.0583" />
<rect x="15.8748" y="8.4666" width="1.0583" height="1.0583" />
<rect x="21.1664" y="8.4666" width="1.0583" height="1.0583" />
<rect x="22.2247" y="8.4666" width="1.0583" height="1.0583" />
</g>
<g fill="rgb(0%,0%,0%)">
<rect x="0.0000" y="9.5249" width="1.0583" height="1.0583" />
<rect x="1.0583" y="9.5249" width="1.0583" height="1.0583" />
<rect x="2.1166" y="9.5249" width="1.0583" height="1.0583" />
<rect x="3.1750" y="9.5249" width="1.0583" height="1.0583" />
<rect x="4.2333" y="9.5249" width="1.0583" height="1.0583" />
<rect x="5.2916" y="9.5249" width="1.0583" height="1.0583" />
<rect x="8.4666" y="9.5249" width="1.0583" height="1.0583" />
<rect x="9.5249" y="9.5249" width="1.0583" height="1.0583" />
<rect x="12.6998" y="9.5249" width="1.0583" height="1.0583" />
<rect x="13.7582" y="9.5249" width="1.0583" height="1.0583" />
<rect x="14.8165" y="9.5249" width="1.0583" height="1.0583" />
<rect x="15.8748" y="9.5249" width="1.0583" height="1.0583" />
<rect x="17.9914" y="9.5249" width="1.0583" height="1.0583" />
<rect x="20.1081" y="9.5249" width="1.0583" height="1.0583" />
<rect x="21.1664" y="9.5249" width="1.0583" height="1.0583" />
<rect x="22.2247" y="9.5249" width="1.0583" height="1.0583" />
<rect x="23.2830" y="9.5249" width="1.0583" height="1.0583" />
<rect x="24.3414" y="9.5249" width="1.0583" height="1.0583" />
</g>
<g fill="rgb(0%,0%,0%)">
<rect x="0.0000" y="10.5832" width="1.0583" height="1.0583" />
<rect x="1.0583" y="10.5832" width="1.0583" height="1.0583" />
<rect x="3.1750" y="10.5832" width="1.0583" height="1.0583" />
<rect x="5.2916" y="10.5832" width="1.0583" height="1.0583" />
<rect x="6.3499" y="10.5832" width="1.0583" height="1.0583" />
<rect x="7.4082" y="10.5832" width="1.0583" height="1.0583" />
<rect x="8.4666" y="10.5832" width="1.0583" height="1.0583" />
<rect x="10.5832" y="10.5832" width="1.0583" height="1.0583" />
<rect x="13.7582" y="10.5832" width="1.0583" height="1.0583" />
<rect x="14.8165" y="10.5832" width="1.0583" height="1.0583" />
<rect x="15.8748" y="10.5832" width="1.0583" height="1.0583" />
<rect x="17.9914" y="10.5832" width="1.0583" height="1.0583" />
<rect x="19.0498" y="10.5832" width="1.0583" height="1.0583" />
<rect x="20.1081" y="10.5832" width="1.0583" height="1.0583" />
<rect x="21.1664" y="10.5832" width="1.0583" height="1.0583" />
<rect x="22.2247" y="10.5832" width="1.0583" height="1.0583" />
<rect x="24.3414" y="10.5832" width="1.0583" height="1.0583" />
<rect x="25.3997" y="10.5832" width="1.0583" height="1.0583" />
</g>
<g fill="rgb(0%,0%,0%)">
<rect x="4.2333" y="11.6415" width="1.0583" height="1.0583" />
<rect x="5.2916" y="11.6415" width="1.0583" height="1.0583" />
<rect x="8.4666" y="11.6415" width="1.0583" height="1.0583" />
<rect x="9.5249" y="11.6415" width="1.0583" height="1.0583" />
<rect x="12.6998" y="11.6415" width="1.0583" height="1.0583" />
<rect x="16.9331" y="11.6415" width="1.0583" height="1.0583" />
<rect x="17.9914" y="11.6415" width="1.0583" height="1.0583" />
<rect x="20.1081" y="11.6415" width="1.0583" height="1.0583" />
<rect x="22.2247" y="11.6415" width="1.0583" height="1.0583" />
<rect x="25.3997" y="11.6415" width="1.0583" height="1.0583" />
</g>
<g fill="rgb(0%,0%,0%)">
<rect x="0.0000" y="12.6998" width="1.0583" height="1.0583" />
<rect x="1.0583" y="12.6998" width="1.0583" height="1.0583" />
<rect x="6.3499" y="12.6998" width="1.0583" height="1.0583" />
<rect x="7.4082" y="12.6998" width="1.0583" height="1.0583" />
<rect x="9.5249" y="12.6998" width="1.0583" height="1.0583" />
<rect x="11.6415" y="12.6998" width="1.0583" height="1.0583" />
<rect x="12.6998" y="12.6998" width="1.0583" height="1.0583" />
<rect x="15.8748" y="12.6998" width="1.0583" height="1.0583" />
<rect x="17.9914" y="12.6998" width="1.0583" height="1.0583" />
<rect x="19.0498" y="12.6998" width="1.0583" height="1.0583" />
<rect x="25.3997" y="12.6998" width="1.0583" height="1.0583" />
</g>
<g fill="rgb(0%,0%,0%)">
<rect x="0.0000" y="13.7582" width="1.0583" height="1.0583" />
<rect x="2.1166" y="13.7582" width="1.0583" height="1.0583" />
<rect x="4.2333" y="13.7582" width="1.0583" height="1.0583" />
<rect x="8.4666" y="13.7582" width="1.0583" height="1.0583" />
<rect x="9.5249" y="13.7582" width="1.0583" height="1.0583" />
<rect x="15.8748" y="13.7582" width="1.0583" height="1.0583" />
<rect x="16.9331" y="13.7582" width="1.0583" height="1.0583" />
<rect x="20.1081" y="13.7582" width="1.0583" height="1.0583" />
<rect x="24.3414" y="13.7582" width="1.0583" height="1.0583" />
</g>
<g fill="rgb(0%,0%,0%)">
<rect x="0.0000" y="14.8165" width="1.0583" height="1.0583" />
<rect x="2.1166" y="14.8165" width="1.0583" height="1.0583" />
<rect x="4.2333" y="14.8165" width="1.0583" height="1.0583" />
<rect x="6.3499" y="14.8165" width="1.0583" height="1.0583" />
<rect x="7.4082" y="14.8165" width="1.0583" height="1.0583" />
<rect x="8.4666" y="14.8165" width="1.0583" height="1.0583" />
<rect x="11.6415" y="14.8165" width="1.0583" height="1.0583" />
<rect x="12.6998" y="14.8165" width="1.0583" height="1.0583" />
<rect x="13.7582" y="14.8165" width="1.0583" height="1.0583" />
<rect x="15.8748" y="14.8165" width="1.0583" height="1.0583" />
<rect x="17.9914" y="14.8165" width="1.0583" height="1.0583" />
<rect x="20.1081" y="14.8165" width="1.0583" height="1.0583" />
<rect x="21.1664" y="14.8165" width="1.0583" height="1.0583" />
<rect x="22.2247" y="14.8165" width="1.0583" height="1.0583" />
<rect x="24.3414" y="14.8165" width="1.0583" height="1.0583" />
<rect x="25.3997" y="14.8165" width="1.0583" height="1.0583" />
</g>
<g fill="rgb(0%,0%,0%)">
<rect x="0.0000" y="15.8748" width="1.0583" height="1.0583" />
<rect x="2.1166" y="15.8748" width="1.0583" height="1.0583" />
<rect x="3.1750" y="15.8748" width="1.0583" height="1.0583" />
<rect x="5.2916" y="15.8748" width="1.0583" height="1.0583" />
<rect x="7.4082" y="15.8748" width="1.0583" height="1.0583" />
<rect x="10.5832" y="15.8748" width="1.0583" height="1.0583" />
<rect x="11.6415" y="15.8748" width="1.0583" height="1.0583" />
<rect x="15.8748" y="15.8748" width="1.0583" height="1.0583" />
<rect x="20.1081" y="15.8748" width="1.0583" height="1.0583" />
<rect x="21.1664" y="15.8748" width="1.0583" height="1.0583" />
<rect x="23.2830" y="15.8748" width="1.0583" height="1.0583" />
<rect x="25.3997" y="15.8748" width="1.0583" height="1.0583" />
</g>
<g fill="rgb(0%,0%,0%)">
<rect x="0.0000" y="16.9331" width="1.0583" height="1.0583" />
<rect x="2.1166" y="16.9331" width="1.0583" height="1.0583" />
<rect x="4.2333" y="16.9331" width="1.0583" height="1.0583" />
<rect x="6.3499" y="16.9331" width="1.0583" height="1.0583" />
<rect x="7.4082" y="16.9331" width="1.0583" height="1.0583" />
<rect x="11.6415" y="16.9331" width="1.0583" height="1.0583" />
<rect x="13.7582" y="16.9331" width="1.0583" height="1.0583" />
<rect x="14.8165" y="16.9331" width="1.0583" height="1.0583" />
<rect x="16.9331" y="16.9331" width="1.0583" height="1.0583" />
<rect x="17.9914" y="16.9331" width="1.0583" height="1.0583" />
<rect x="19.0498" y="16.9331" width="1.0583" height="1.0583" />
<rect x="20.1081" y="16.9331" width="1.0583" height="1.0583" />
<rect x="21.1664" y="16.9331" width="1.0583" height="1.0583" />
<rect x="23.2830" y="16.9331" width="1.0583" height="1.0583" />
</g>
<g fill="rgb(0%,0%,0%)">
<rect x="8.4666" y="17.9914" width="1.0583" height="1.0583" />
<rect x="10.5832" y="17.9914" width="1.0583" height="1.0583" />
<rect x="12.6998" y="17.9914" width="1.0583" height="1.0583" />
<rect x="13.7582" y="17.9914" width="1.0583" height="1.0583" />
<rect x="16.9331" y="17.9914" width="1.0583" height="1.0583" />
<rect x="21.1664" y="17.9914" width="1.0583" height="1.0583" />
<rect x="23.2830" y="17.9914" width="1.0583" height="1.0583" />
</g>
<g fill="rgb(0%,0%,0%)">
<rect x="0.0000" y="19.0498" width="1.0583" height="1.0583" />
<rect x="1.0583" y="19.0498" width="1.0583" height="1.0583" />
<rect x="2.1166" y="19.0498" width="1.0583" height="1.0583" />
<rect x="3.1750" y="19.0498" width="1.0583" height="1.0583" />
<rect x="4.2333" y="19.0498" width="1.0583" height="1.0583" />
<rect x="5.2916" y="19.0498" width="1.0583" height="1.0583" />
<rect x="6.3499" y="19.0498" width="1.0583" height="1.0583" />
<rect x="8.4666" y="19.0498" width="1.0583" height="1.0583" />
<rect x="9.5249" y="19.0498" width="1.0583" height="1.0583" />
<rect x="10.5832" y="19.0498" width="1.0583" height="1.0583" />
<rect x="11.6415" y="19.0498" width="1.0583" height="1.0583" />
<rect x="16.9331" y="19.0498" width="1.0583" height="1.0583" />
<rect x="19.0498" y="19.0498" width="1.0583" height="1.0583" />
<rect x="21.1664" y="19.0498" width="1.0583" height="1.0583" />
<rect x="22.2247" y="19.0498" width="1.0583" height="1.0583" />
<rect x="25.3997" y="19.0498" width="1.0583" height="1.0583" />
</g>
<g fill="rgb(0%,0%,0%)">
<rect x="0.0000" y="20.1081" width="1.0583" height="1.0583" />
<rect x="6.3499" y="20.1081" width="1.0583" height="1.0583" />
<rect x="8.4666" y="20.1081" width="1.0583" height="1.0583" />
<rect x="9.5249" y="20.1081" width="1.0583" height="1.0583" />
<rect x="12.6998" y="20.1081" width="1.0583" height="1.0583" />
<rect x="14.8165" y="20.1081" width="1.0583" height="1.0583" />
<rect x="15.8748" y="20.1081" width="1.0583" height="1.0583" />
<rect x="16.9331" y="20.1081" width="1.0583" height="1.0583" />
<rect x="21.1664" y="20.1081" width="1.0583" height="1.0583" />
<rect x="24.3414" y="20.1081" width="1.0583" height="1.0583" />
</g>
<g fill="rgb(0%,0%,0%)">
<rect x="0.0000" y="21.1664" width="1.0583" height="1.0583" />
<rect x="2.1166" y="21.1664" width="1.0583" height="1.0583" />
<rect x="3.1750" y="21.1664" width="1.0583" height="1.0583" />
<rect x="4.2333" y="21.1664" width="1.0583" height="1.0583" />
<rect x="6.3499" y="21.1664" width="1.0583" height="1.0583" />
<rect x="9.5249" y="21.1664" width="1.0583" height="1.0583" />
<rect x="10.5832" y="21.1664" width="1.0583" height="1.0583" />
<rect x="12.6998" y="21.1664" width="1.0583" height="1.0583" />
<rect x="13.7582" y="21.1664" width="1.0583" height="1.0583" />
<rect x="14.8165" y="21.1664" width="1.0583" height="1.0583" />
<rect x="15.8748" y="21.1664" width="1.0583" height="1.0583" />
<rect x="16.9331" y="21.1664" width="1.0583" height="1.0583" />
<rect x="17.9914" y="21.1664" width="1.0583" height="1.0583" />
<rect x="19.0498" y="21.1664" width="1.0583" height="1.0583" />
<rect x="20.1081" y="21.1664" width="1.0583" height="1.0583" />
<rect x="21.1664" y="21.1664" width="1.0583" height="1.0583" />
<rect x="22.2247" y="21.1664" width="1.0583" height="1.0583" />
<rect x="23.2830" y="21.1664" width="1.0583" height="1.0583" />
<rect x="24.3414" y="21.1664" width="1.0583" height="1.0583" />
<rect x="25.3997" y="21.1664" width="1.0583" height="1.0583" />
</g>
<g fill="rgb(0%,0%,0%)">
<rect x="0.0000" y="22.2247" width="1.0583" height="1.0583" />
<rect x="2.1166" y="22.2247" width="1.0583" height="1.0583" />
<rect x="3.1750" y="22.2247" width="1.0583" height="1.0583" />
<rect x="4.2333" y="22.2247" width="1.0583" height="1.0583" />
<rect x="6.3499" y="22.2247" width="1.0583" height="1.0583" />
<rect x="10.5832" y="22.2247" width="1.0583" height="1.0583" />
<rect x="13.7582" y="22.2247" width="1.0583" height="1.0583" />
<rect x="14.8165" y="22.2247" width="1.0583" height="1.0583" />
<rect x="15.8748" y="22.2247" width="1.0583" height="1.0583" />
<rect x="16.9331" y="22.2247" width="1.0583" height="1.0583" />
<rect x="17.9914" y="22.2247" width="1.0583" height="1.0583" />
<rect x="19.0498" y="22.2247" width="1.0583" height="1.0583" />
<rect x="20.1081" y="22.2247" width="1.0583" height="1.0583" />
<rect x="22.2247" y="22.2247" width="1.0583" height="1.0583" />
<rect x="24.3414" y="22.2247" width="1.0583" height="1.0583" />
<rect x="25.3997" y="22.2247" width="1.0583" height="1.0583" />
</g>
<g fill="rgb(0%,0%,0%)">
<rect x="0.0000" y="23.2830" width="1.0583" height="1.0583" />
<rect x="2.1166" y="23.2830" width="1.0583" height="1.0583" />
<rect x="3.1750" y="23.2830" width="1.0583" height="1.0583" />
<rect x="4.2333" y="23.2830" width="1.0583" height="1.0583" />
<rect x="6.3499" y="23.2830" width="1.0583" height="1.0583" />
<rect x="9.5249" y="23.2830" width="1.0583" height="1.0583" />
<rect x="11.6415" y="23.2830" width="1.0583" height="1.0583" />
<rect x="12.6998" y="23.2830" width="1.0583" height="1.0583" />
<rect x="14.8165" y="23.2830" width="1.0583" height="1.0583" />
<rect x="20.1081" y="23.2830" width="1.0583" height="1.0583" />
<rect x="23.2830" y="23.2830" width="1.0583" height="1.0583" />
<rect x="25.3997" y="23.2830" width="1.0583" height="1.0583" />
</g>
<g fill="rgb(0%,0%,0%)">
<rect x="0.0000" y="24.3414" width="1.0583" height="1.0583" />
<rect x="6.3499" y="24.3414" width="1.0583" height="1.0583" />
<rect x="8.4666" y="24.3414" width="1.0583" height="1.0583" />
<rect x="11.6415" y="24.3414" width="1.0583" height="1.0583" />
<rect x="14.8165" y="24.3414" width="1.0583" height="1.0583" />
<rect x="16.9331" y="24.3414" width="1.0583" height="1.0583" />
<rect x="19.0498" y="24.3414" width="1.0583" height="1.0583" />
<rect x="20.1081" y="24.3414" width="1.0583" height="1.0583" />
<rect x="21.1664" y="24.3414" width="1.0583" height="1.0583" />
<rect x="25.3997" y="24.3414" width="1.0583" height="1.0583" />
</g>
<g fill="rgb(0%,0%,0%)">
<rect x="0.0000" y="25.3997" width="1.0583" height="1.0583" />
<rect x="1.0583" y="25.3997" width="1.0583" height="1.0583" />
<rect x="2.1166" y="25.3997" width="1.0583" height="1.0583" />
<rect x="3.1750" y="25.3997" width="1.0583" height="1.0583" />
<rect x="4.2333" y="25.3997" width="1.0583" height="1.0583" />
<rect x="5.2916" y="25.3997" width="1.0583" height="1.0583" />
<rect x="6.3499" y="25.3997" width="1.0583" height="1.0583" />
<rect x="8.4666" y="25.3997" width="1.0583" height="1.0583" />
<rect x="12.6998" y="25.3997" width="1.0583" height="1.0583" />
<rect x="13.7582" y="25.3997" width="1.0583" height="1.0583" />
<rect x="14.8165" y="25.3997" width="1.0583" height="1.0583" />
<rect x="16.9331" y="25.3997" width="1.0583" height="1.0583" />
<rect x="22.2247" y="25.3997" width="1.0583" height="1.0583" />
<rect x="25.3997" y="25.3997" width="1.0583" height="1.0583" />
</g>
</svg>
