<?xml version="1.0" encoding="utf-8"?>
<!-- Generator: Adobe Illustrator 27.0.1, SVG Export Plug-In . SVG Version: 6.00 Build 0)  -->
<svg version="1.1" id="Layer_1" xmlns="http://www.w3.org/2000/svg" xmlns:xlink="http://www.w3.org/1999/xlink" x="0px" y="0px"
	 viewBox="0 0 120 74" style="enable-background:new 0 0 120 74;" xml:space="preserve">
<style type="text/css">
	.st0{fill:#FFFFFF;}
	.st1{font-family:'Montserrat-Bold';}
	.st2{font-size:13.9217px;}
</style>
<g>
	<g>
		<g>
			<path class="st0" d="M63.1,29.3c-5.7,0-10.3-4.6-10.3-10.3S57.4,8.8,63.1,8.8c0.2,0,0.4,0,0.6,0l-4.3-4.3L44.9,19l14.5,14.5
				l4.3-4.3C63.5,29.3,63.3,29.3,63.1,29.3z"/>
		</g>
		<g>
			<path class="st0" d="M62,11.4c4.2,0,7.7,3.4,7.7,7.7s-3.4,7.7-7.7,7.7c-0.1,0-0.3,0-0.4,0l3.2,3.2L75.6,19L64.8,8.2l-3.2,3.2
				C61.8,11.4,61.9,11.4,62,11.4z"/>
		</g>
		<path class="st0" d="M61.9,14.4c-2.5,0-4.6,2.1-4.6,4.6s2.1,4.6,4.6,4.6c2.5,0,4.6-2.1,4.6-4.6S64.5,14.4,61.9,14.4z M61.9,21.3
			c-1.3,0-2.3-1-2.3-2.3c0-1.3,1-2.3,2.3-2.3c1.3,0,2.3,1,2.3,2.3C64.2,20.3,63.2,21.3,61.9,21.3z"/>
	</g>
	<text transform="matrix(1 0 0 1 18.0889 65.8037)" class="st0 st1 st2">Center ux</text>
</g>
</svg>
