<?xml version="1.0" encoding="UTF-8"?><svg id="Layer_1" xmlns="http://www.w3.org/2000/svg" viewBox="0 0 256 256"><defs><style>.cls-1{fill:#fff;}.cls-2{fill:#c69c6d;}</style></defs><rect class="cls-2" x="16.09" y="99.26" width="226.91" height="15.94"/><path class="cls-2" d="M16.09,113.84H243v115.53c0,4.3-3.49,7.8-7.8,7.8H23.89c-4.3,0-7.8-3.49-7.8-7.8V113.84h0Z"/><g><polygon class="cls-1" points="53.06 115.19 37.12 99.26 16.09 99.26 15.94 99.41 31.73 115.19 53.06 115.19"/><polygon class="cls-1" points="100.55 115.19 84.61 99.26 63.58 99.26 63.43 99.41 79.21 115.19 100.55 115.19"/><polygon class="cls-1" points="148.03 115.19 132.09 99.26 111.06 99.26 110.91 99.41 126.69 115.19 148.03 115.19"/><polygon class="cls-1" points="195.52 115.19 179.58 99.26 158.55 99.26 158.39 99.41 174.18 115.19 195.52 115.19"/><polygon class="cls-1" points="243 115.19 227.06 99.26 206.03 99.26 205.88 99.41 221.66 115.19 243 115.19"/></g><path class="cls-2" d="M15.45,99.26L234.62,40.53l-1.88-11.31c-1.2-7.23-8.38-11.85-15.46-9.95L22.2,71.54c-6.17,1.65-10.08,7.72-9.03,14.03l2.28,13.69Z"/><g><polygon class="cls-1" points="198.91 50.1 210.18 30.58 230.5 25.13 230.68 25.24 219.52 44.57 198.91 50.1"/><polygon class="cls-1" points="153.05 62.39 164.32 42.87 184.63 37.42 184.82 37.53 173.66 56.86 153.05 62.39"/><polygon class="cls-1" points="107.18 74.68 118.45 55.16 138.76 49.71 138.95 49.82 127.79 69.15 107.18 74.68"/><polygon class="cls-1" points="61.31 86.97 72.58 67.45 92.9 62 93.08 62.11 81.92 81.44 61.31 86.97"/><polygon class="cls-1" points="15.45 99.26 26.72 79.74 47.03 74.29 47.22 74.4 36.06 93.73 15.45 99.26"/></g><path class="cls-1" d="M113.1,154.06v50.41c0,7.49,8.42,11.89,14.56,7.61l36.25-25.21c5.3-3.69,5.3-11.54,0-15.22l-36.25-25.21c-6.15-4.27-14.56,.12-14.56,7.61Z"/></svg>