<?xml version="1.0" encoding="UTF-8"?><svg id="Layer_1" xmlns="http://www.w3.org/2000/svg" xmlns:xlink="http://www.w3.org/1999/xlink" viewBox="0 0 256 256"><defs><style>.cls-1{fill:none;}.cls-2{clip-path:url(#clippath);}.cls-3{fill:#007bff;}.cls-4{fill:#fff;}</style><clipPath id="clippath"><path class="cls-1" d="M-.12,0H256.12V12c0,70.65-57.35,128-128,128h-.25C57.23,140-.12,82.65-.12,12V0H-.12Z"/></clipPath></defs><rect class="cls-3" x="-.12" width="256.25" height="256"/><path class="cls-4" d="M-.12,0H256.12V12c0,70.65-57.35,128-128,128h-.25C57.23,140-.12,82.65-.12,12V0H-.12Z"/><g><g><path class="cls-4" d="M164.62,233.5c-3.19,0-6.15-2.04-7.18-5.24l-4.11-12.83c-1.27-3.96,.91-8.21,4.88-9.48,3.97-1.27,8.21,.92,9.48,4.88l4.11,12.83c1.27,3.96-.91,8.21-4.88,9.48-.76,.24-1.54,.36-2.3,.36Z"/><path class="cls-4" d="M148.18,182.18c-3.19,0-6.15-2.04-7.18-5.24l-17.37-54.23c-1.27-3.96,.91-8.21,4.88-9.48,3.97-1.27,8.21,.92,9.48,4.88l17.37,54.23c1.27,3.96-.91,8.21-4.88,9.48-.76,.24-1.54,.36-2.3,.36Z"/><path class="cls-4" d="M91.38,233.5c-.76,0-1.54-.12-2.3-.36-3.96-1.27-6.15-5.51-4.88-9.48l33.82-105.56c1.27-3.96,5.51-6.15,9.48-4.88,3.96,1.27,6.15,5.51,4.88,9.48l-33.82,105.56c-1.03,3.2-3.99,5.24-7.18,5.24Z"/></g><path class="cls-4" d="M128,68.38c-4.16,0-7.54-3.37-7.54-7.54V30.04c0-4.16,3.37-7.54,7.54-7.54s7.54,3.37,7.54,7.54v30.81c0,4.16-3.37,7.54-7.54,7.54Z"/><path class="cls-4" d="M128,126.88c-20.28,0-36.79-16.5-36.79-36.79s16.5-36.79,36.79-36.79,36.79,16.5,36.79,36.79-16.5,36.79-36.79,36.79Zm0-58.5c-11.97,0-21.72,9.74-21.72,21.72s9.74,21.72,21.72,21.72,21.72-9.74,21.72-21.72-9.74-21.72-21.72-21.72Z"/><path class="cls-4" d="M128,208.91c-22.93,0-43.57-12.75-53.85-33.28-1.86-3.72-.36-8.25,3.36-10.11,3.72-1.87,8.25-.36,10.11,3.36,7.71,15.4,23.18,24.96,40.37,24.96s32.66-9.57,40.37-24.96c1.86-3.72,6.39-5.23,10.11-3.36,3.72,1.86,5.23,6.39,3.36,10.11-10.28,20.53-30.91,33.28-53.85,33.28Z"/></g><g class="cls-2"><g><g><path class="cls-3" d="M164.62,233.5c-3.19,0-6.15-2.04-7.18-5.24l-4.11-12.83c-1.27-3.96,.91-8.21,4.88-9.48,3.97-1.27,8.21,.92,9.48,4.88l4.11,12.83c1.27,3.96-.91,8.21-4.88,9.48-.76,.24-1.54,.36-2.3,.36Z"/><path class="cls-3" d="M148.18,182.18c-3.19,0-6.15-2.04-7.18-5.24l-17.37-54.23c-1.27-3.96,.91-8.21,4.88-9.48,3.97-1.27,8.21,.92,9.48,4.88l17.37,54.23c1.27,3.96-.91,8.21-4.88,9.48-.76,.24-1.54,.36-2.3,.36Z"/><path class="cls-3" d="M91.38,233.5c-.76,0-1.54-.12-2.3-.36-3.96-1.27-6.15-5.51-4.88-9.48l33.82-105.56c1.27-3.96,5.51-6.15,9.48-4.88,3.96,1.27,6.15,5.51,4.88,9.48l-33.82,105.56c-1.03,3.2-3.99,5.24-7.18,5.24Z"/></g><path class="cls-3" d="M128,68.38c-4.16,0-7.54-3.37-7.54-7.54V30.04c0-4.16,3.37-7.54,7.54-7.54s7.54,3.37,7.54,7.54v30.81c0,4.16-3.37,7.54-7.54,7.54Z"/><path class="cls-3" d="M128,126.88c-20.28,0-36.79-16.5-36.79-36.79s16.5-36.79,36.79-36.79,36.79,16.5,36.79,36.79-16.5,36.79-36.79,36.79Zm0-58.5c-11.97,0-21.72,9.74-21.72,21.72s9.74,21.72,21.72,21.72,21.72-9.74,21.72-21.72-9.74-21.72-21.72-21.72Z"/><path class="cls-3" d="M128,208.91c-22.93,0-43.57-12.75-53.85-33.28-1.86-3.72-.36-8.25,3.36-10.11,3.72-1.87,8.25-.36,10.11,3.36,7.71,15.4,23.18,24.96,40.37,24.96s32.66-9.57,40.37-24.96c1.86-3.72,6.39-5.23,10.11-3.36,3.72,1.86,5.23,6.39,3.36,10.11-10.28,20.53-30.91,33.28-53.85,33.28Z"/></g></g></svg>