<?xml version="1.0" encoding="UTF-8"?><svg id="Layer_1" xmlns="http://www.w3.org/2000/svg" viewBox="0 0 256 256"><defs><style>.cls-1{fill:#fff;}.cls-2{fill:#d4145a;}</style></defs><rect class="cls-2" width="256" height="256"/><g><g><path class="cls-1" d="M136.67,161.94c-34.9,0-63.19-28.29-63.19-63.19s28.29-63.19,63.19-63.19c1.18,0,2.35,.04,3.52,.1l-26.28-26.28L24.54,98.75l89.36,89.36,26.28-26.28c-1.17,.06-2.34,.1-3.52,.1Z"/><path class="cls-1" d="M130.01,51.69c25.99,0,47.06,21.07,47.06,47.06s-21.07,47.06-47.06,47.06c-.88,0-1.75-.03-2.62-.08l19.57,19.57,66.56-66.56L146.96,32.19l-19.57,19.57c.87-.05,1.74-.08,2.62-.08Z"/><path class="cls-1" d="M129.26,70.49c-15.61,0-28.27,12.66-28.27,28.27s12.66,28.27,28.27,28.27,28.27-12.66,28.27-28.27-12.66-28.27-28.27-28.27Zm0,42.29c-7.74,0-14.02-6.28-14.02-14.02s6.28-14.02,14.02-14.02,14.02,6.28,14.02,14.02-6.28,14.02-14.02,14.02Z"/></g><g><path class="cls-1" d="M20.56,215.96c0-7.59,5.83-13.03,13.68-13.03,4.36,0,7.99,1.58,10.37,4.46l-3.74,3.46c-1.69-1.94-3.82-2.95-6.34-2.95-4.71,0-8.06,3.31-8.06,8.06s3.35,8.06,8.06,8.06c2.52,0,4.64-1.01,6.34-2.99l3.74,3.46c-2.38,2.92-6.01,4.5-10.4,4.5-7.81,0-13.64-5.43-13.64-13.03Z"/><path class="cls-1" d="M68.04,223.88v4.68h-19.51v-25.2h19.04v4.68h-13.25v5.47h11.7v4.54h-11.7v5.83h13.71Z"/><path class="cls-1" d="M95.79,203.36v25.2h-4.79l-12.56-15.3v15.3h-5.76v-25.2h4.82l12.53,15.3v-15.3h5.76Z"/><path class="cls-1" d="M106.99,208.11h-8.06v-4.75h21.96v4.75h-8.06v20.45h-5.83v-20.45Z"/><path class="cls-1" d="M143.53,223.88v4.68h-19.51v-25.2h19.04v4.68h-13.25v5.47h11.7v4.54h-11.7v5.83h13.71Z"/><path class="cls-1" d="M164.23,228.56l-4.86-7.02h-5.36v7.02h-5.83v-25.2h10.91c6.73,0,10.94,3.49,10.94,9.14,0,3.78-1.91,6.55-5.18,7.96l5.65,8.1h-6.26Zm-5.47-20.45h-4.75v8.78h4.75c3.56,0,5.36-1.66,5.36-4.39s-1.8-4.39-5.36-4.39Z"/><path class="cls-1" d="M184.61,217.47v-14.11h5.83v13.89c0,4.79,2.09,6.77,5.62,6.77s5.62-1.98,5.62-6.77v-13.89h5.76v14.11c0,7.42-4.25,11.52-11.41,11.52s-11.41-4.1-11.41-11.52Z"/><path class="cls-1" d="M228.71,228.56l-6.08-8.75-5.98,8.75h-6.7l9.32-12.81-8.85-12.38h6.62l5.79,8.17,5.69-8.17h6.3l-8.78,12.17,9.4,13.03h-6.73Z"/></g></g></svg>