<?xml version="1.0" encoding="UTF-8"?><svg id="Layer_1" xmlns="http://www.w3.org/2000/svg" viewBox="0 0 340 96"><defs><style>.cls-1{fill:#fff;}.cls-2{fill:#d4145a;}</style></defs><rect class="cls-2" width="340" height="96"/><g><g><path class="cls-1" d="M61.95,74.58c-14.68,0-26.58-11.9-26.58-26.58s11.9-26.58,26.58-26.58c.5,0,.99,.02,1.48,.04l-11.05-11.05L14.79,48l37.59,37.59,11.05-11.05c-.49,.03-.98,.04-1.48,.04Z"/><path class="cls-1" d="M59.15,28.2c10.93,0,19.8,8.86,19.8,19.8s-8.86,19.8-19.8,19.8c-.37,0-.74-.01-1.1-.03l8.23,8.23,28-28-28-28-8.23,8.23c.37-.02,.73-.03,1.1-.03Z"/><path class="cls-1" d="M58.84,36.11c-6.57,0-11.89,5.32-11.89,11.89s5.32,11.89,11.89,11.89,11.89-5.32,11.89-11.89-5.32-11.89-11.89-11.89Zm0,17.79c-3.26,0-5.9-2.64-5.9-5.9s2.64-5.9,5.9-5.9,5.9,2.64,5.9,5.9-2.64,5.9-5.9,5.9Z"/></g><g><path class="cls-1" d="M110.22,48c0-7.59,5.83-13.03,13.68-13.03,4.36,0,7.99,1.58,10.37,4.46l-3.74,3.46c-1.69-1.94-3.82-2.95-6.33-2.95-4.72,0-8.06,3.31-8.06,8.06s3.35,8.06,8.06,8.06c2.52,0,4.64-1.01,6.33-2.99l3.74,3.46c-2.38,2.92-6.01,4.5-10.4,4.5-7.81,0-13.64-5.43-13.64-13.03Z"/><path class="cls-1" d="M157.7,55.92v4.68h-19.51v-25.2h19.04v4.68h-13.25v5.47h11.7v4.54h-11.7v5.83h13.71Z"/><path class="cls-1" d="M185.46,35.4v25.2h-4.79l-12.56-15.3v15.3h-5.76v-25.2h4.82l12.53,15.3v-15.3h5.76Z"/><path class="cls-1" d="M196.66,40.15h-8.06v-4.75h21.96v4.75h-8.06v20.45h-5.83v-20.45Z"/><path class="cls-1" d="M233.2,55.92v4.68h-19.51v-25.2h19.04v4.68h-13.25v5.47h11.7v4.54h-11.7v5.83h13.71Z"/><path class="cls-1" d="M253.9,60.6l-4.86-7.02h-5.36v7.02h-5.83v-25.2h10.91c6.73,0,10.94,3.49,10.94,9.14,0,3.78-1.91,6.55-5.18,7.96l5.65,8.1h-6.26Zm-5.47-20.45h-4.75v8.78h4.75c3.56,0,5.36-1.66,5.36-4.39s-1.8-4.39-5.36-4.39Z"/><path class="cls-1" d="M274.27,49.51v-14.11h5.83v13.89c0,4.79,2.09,6.77,5.62,6.77s5.62-1.98,5.62-6.77v-13.89h5.76v14.11c0,7.42-4.25,11.52-11.41,11.52s-11.41-4.1-11.41-11.52Z"/><path class="cls-1" d="M318.37,60.6l-6.08-8.75-5.98,8.75h-6.7l9.32-12.81-8.85-12.38h6.62l5.79,8.17,5.69-8.17h6.3l-8.78,12.17,9.4,13.03h-6.73Z"/></g></g></svg>